<svg version="1.0" xmlns="http://www.w3.org/2000/svg"
 width="500.000000pt" height="500.000000pt" viewBox="0 0 500.000000 500.000000"
 preserveAspectRatio="xMidYMid meet">

<g transform="translate(0.000000,500.000000) scale(0.100000,-0.100000)" stroke="none">
<path d="M1540 4610 c-305 -23 -622 -123 -852 -266 -138 -86 -298 -236 -378
-354 -75 -110 -145 -297 -182 -485 -29 -144 -31 -405 -5 -537 34 -170 110
-365 216 -553 120 -212 308 -601 326 -674 14 -57 16 -100 12 -209 -7 -202 -34
-291 -209 -676 -112 -246 -158 -357 -158 -381 0 -32 30 -73 61 -84 23 -8 303
-11 946 -11 998 0 957 -2 982 57 8 21 9 58 1 143 -13 149 -13 271 1 307 13 35
55 80 92 99 15 8 80 19 145 25 364 30 395 36 478 92 66 44 110 105 135 189 19
62 21 87 17 203 l-5 133 32 30 c47 45 61 84 46 133 -12 39 -11 40 29 77 22 22
40 47 40 57 0 9 -16 52 -35 95 -35 76 -44 123 -26 134 5 3 43 13 85 21 91 17
172 58 198 100 46 73 5 163 -198 436 -61 82 -121 172 -133 200 -22 49 -22 55
-10 180 9 99 9 147 0 211 -10 75 -59 286 -77 333 -7 18 -6 18 16 2 54 -38 131
-13 146 47 13 51 -65 247 -144 362 -47 69 -147 168 -215 214 -61 41 -155 83
-232 105 -33 9 -103 39 -155 65 -196 99 -428 160 -680 180 -146 11 -166 11
-310 0z"/>
<path d="M4256 3218 c-30 -42 -20 -65 62 -151 411 -430 546 -1030 358 -1590
-75 -225 -187 -407 -378 -614 -32 -34 -58 -72 -58 -83 0 -27 43 -70 71 -70 31
0 157 126 250 249 242 322 366 750 331 1149 -21 247 -70 423 -177 637 -77 154
-162 276 -280 403 -80 85 -89 92 -125 92 -29 0 -43 -6 -54 -22z"/>
<path d="M3970 2940 c-39 -39 -27 -73 58 -163 156 -166 248 -344 298 -576 21
-96 23 -319 5 -421 -41 -228 -152 -445 -317 -619 -69 -74 -81 -112 -46 -144
38 -35 77 -22 144 46 125 127 239 309 302 485 91 254 93 579 7 842 -59 177
-192 392 -319 513 -66 62 -98 71 -132 37z"/>
<path d="M3682 2644 c-35 -24 -30 -73 14 -115 96 -92 182 -239 215 -368 30
-115 28 -270 -6 -384 -14 -49 -35 -107 -46 -130 -32 -62 -101 -156 -153 -207
-51 -49 -61 -93 -28 -123 41 -37 86 -22 152 49 99 109 160 214 205 354 24 72
28 107 32 230 4 131 2 154 -21 244 -42 163 -111 285 -228 404 -66 66 -94 76
-136 46z"/>
</g>
</svg>
