<svg version="1.0" xmlns="http://www.w3.org/2000/svg"
 width="298.000000pt" height="363.000000pt" viewBox="0 0 298.000000 363.000000"
 preserveAspectRatio="xMidYMid meet">

<g transform="translate(0.000000,363.000000) scale(0.100000,-0.100000)" stroke="none">
<path d="M1163 3619 c-300 -39 -592 -175 -801 -373 -198 -188 -317 -426 -352
-701 -17 -131 0 -398 34 -528 31 -122 119 -343 160 -404 79 -118 71 -18 74
-860 l3 -753 441 0 441 0 -6 662 c-6 737 -8 761 -72 895 -44 90 -121 164 -197
188 -130 42 -229 119 -242 189 -16 86 31 156 111 163 53 5 72 -3 220 -94 120
-74 233 -108 353 -107 118 1 172 20 304 108 298 199 618 168 904 -89 114 -103
187 -224 250 -419 20 -61 37 -112 38 -114 1 -2 21 2 45 8 84 23 123 95 100
184 -6 25 -38 102 -72 173 -142 299 -217 546 -202 671 3 26 0 96 -6 155 -60
553 -481 947 -1116 1042 -105 16 -308 18 -412 4z"/>
<path d="M2098 1664 c-234 -56 -514 -325 -573 -549 -21 -81 -33 -294 -41 -737
l-6 -378 201 0 201 0 0 179 c0 247 -27 225 278 222 269 -3 295 2 357 68 l30
32 0 135 0 134 31 10 c48 16 74 46 74 86 0 43 -20 74 -70 109 -22 15 -40 31
-40 34 0 4 26 12 58 19 83 17 141 49 159 87 l16 33 -92 178 c-100 196 -133
236 -241 293 -110 59 -225 74 -342 45z"/>
</g>
</svg>
